# xmcd
#
# Track frame offsets:
#	150
#	12097
#	26737
#	42443
#	56743
#	74521
#	88390
#	98552
#	113670
#	128729
#	139259
#	151062
#	163076
#	179358
#	196871
#	208385
#	226861
#	239544
#	253042
#	268329
#	279963
#	294811
#	307492
#	324442
#
# Disc length: 4516 seconds
#
# Revision: 0
# Processed by: cddbd v1.4PL0 Copyright (c) Steve Scherf et al.
# Submitted via: audiograbber 1.80
#
DISCID=6411a218
DTITLE=Benny Barnes - Give Me A Good Country Song - Jimmy Boyd - For My Friends
DYEAR=1900
DGENRE=
TTITLE0=I'll Get By - Benny Barnes
TTITLE1=Give Me A Good Country Song - Benny Barnes
TTITLE2=The Bad News Came Too Late - Benny Barnes
TTITLE3=I Can PLay Your Memory By Heart - Benny Barnes
TTITLE4=Family Man - Benny Barnes
TTITLE5=Was It Just A Dream - Benny Barnes
TTITLE6=Country Music King - Benny Barnes
TTITLE7=What's Wrong With Being Treated Right - Benny Barnes
TTITLE8=Pain Pain Go Away - Benny Barnes
TTITLE9=Little Old You - Benny Barnes
TTITLE10=The Healing Has Happened - Benny Barnes
TTITLE11=Where The Soul Never Dies - Benny Barnes
TTITLE12=Good For Nothing - Jimmy Boyd
TTITLE13=Silver Wings - Jimmy Boyd
TTITLE14=Dunlap - Jimmy Boyd
TTITLE15=Long Black Veil - Jimmy Boyd
TTITLE16=Blue Eyes Crying In The Rain
TTITLE17=Your Time's Comin' - Jimmy Boyd
TTITLE18=I'm So Lonesome I Could Cru - Jimmy Boyd
TTITLE19=Chattanooga Bound - Jimmy Boyd
TTITLE20=He Stopped Loving Her Today
TTITLE21=California Blues - Jimmy Boyd
TTITLE22=Half A Man - Jimmy Boyd
TTITLE23=Peace In The Valley - Jimmy Boyd
EXTD=
EXTT0=
EXTT1=
EXTT2=
EXTT3=
EXTT4=
EXTT5=
EXTT6=
EXTT7=
EXTT8=
EXTT9=
EXTT10=
EXTT11=
EXTT12=
EXTT13=
EXTT14=
EXTT15=
EXTT16=
EXTT17=
EXTT18=
EXTT19=
EXTT20=
EXTT21=
EXTT22=
EXTT23=
PLAYORDER=
